<svg width="255" height="255" viewBox="0 0 255 255" fill="none" xmlns="http://www.w3.org/2000/svg">
<rect x="7.5" y="7.5" width="240" height="240" rx="8.5" stroke="#4C9C81" stroke-width="15"/>
<path d="M34.4142 178.5V74.3077H103.628V92.3181H56.7411V117.622H93.6549V135.037H56.7411V178.5H34.4142ZM118.285 178.5V74.3077H158.772C167.305 74.3077 174.351 75.7465 179.908 78.6242C185.564 81.5019 189.781 85.4712 192.56 90.5319C195.338 95.4935 196.727 101.1 196.727 107.352C196.727 113.206 195.388 118.614 192.709 123.576C190.029 128.537 185.911 132.556 180.354 135.632C174.797 138.708 167.603 140.247 158.772 140.247H140.612V178.5H118.285ZM140.612 122.385H157.283C163.138 122.385 167.355 121.045 169.935 118.366C172.614 115.588 173.954 111.916 173.954 107.352C173.954 102.688 172.614 99.0658 169.935 96.4858C167.355 93.8065 163.138 92.4669 157.283 92.4669H140.612V122.385ZM210.825 179.244C206.756 179.244 203.432 178.053 200.852 175.672C198.371 173.191 197.131 170.214 197.131 166.741C197.131 163.169 198.371 160.192 200.852 157.81C203.432 155.33 206.756 154.089 210.825 154.089C214.794 154.089 218.019 155.33 220.5 157.81C222.981 160.192 224.221 163.169 224.221 166.741C224.221 170.214 222.981 173.191 220.5 175.672C218.019 178.053 214.794 179.244 210.825 179.244Z" fill="#4C9C81"/>
</svg>
