<svg width="29" height="16" viewBox="0 0 29 16" fill="none" xmlns="http://www.w3.org/2000/svg">
<path fill-rule="evenodd" clip-rule="evenodd" d="M26.4222 0C27.8459 0 29 1.14615 29 2.56V13.44C29 14.8538 27.8459 16 26.4222 16H2.57778C1.15411 16 0 14.8538 0 13.44V2.56C2.28356e-07 1.14615 1.15411 3.35013e-08 2.57778 0H26.4222ZM9.4464 9.11812C9.17854 8.88558 8.77131 8.91282 8.537 9.17875L4.02589 14.2987C3.79173 14.5648 3.81916 14.9692 4.08694 15.2019C4.35479 15.4344 4.76202 15.4072 4.99633 15.1412L9.50744 10.0212C9.74161 9.75524 9.71418 9.35082 9.4464 9.11812ZM20.7852 9.17875C20.5509 8.91282 20.1437 8.88558 19.8758 9.11812C19.608 9.35082 19.5806 9.75524 19.8148 10.0212L24.3259 15.1412C24.5602 15.4072 24.9674 15.4344 25.2353 15.2019C25.5031 14.9692 25.5305 14.5648 25.2963 14.2987L20.7852 9.17875ZM2.25052 1.3625C1.96637 1.20261 1.60084 1.27973 1.40783 1.55C1.21493 1.82021 1.26277 2.18782 1.50853 2.40125L1.56076 2.44187L12.7725 10.3387C13.9003 11.1331 15.4131 11.1243 16.5315 10.3169L27.4455 2.4375C27.7334 2.22966 27.797 1.82964 27.5878 1.54375C27.3785 1.25788 26.9757 1.19468 26.6878 1.4025L15.7732 9.28125C15.1021 9.76568 14.1949 9.77097 13.5182 9.29437L2.3059 1.39812L2.25052 1.3625Z" fill="white"/>
</svg>
